
<svg version="1.0" height="40" width="40" viewBox="0 0 96.000000 167.000000" xmlns="http://www.w3.org/2000/svg">

<g transform="translate(0.000000,167.000000) scale(0.100000,-0.100000)"
fill="#990033" stroke="none">
<path d="M335 1464 c-11 -3 -39 -14 -62 -25 -24 -10 -45 -19 -48 -19 -21 0
-81 -64 -106 -112 -27 -53 -29 -66 -29 -167 0 -96 3 -118 25 -167 33 -74 32
-105 -4 -146 -16 -18 -37 -56 -47 -84 -17 -50 -17 -52 3 -100 42 -99 145 -134
393 -134 121 0 139 -3 175 -23 46 -26 60 -67 39 -116 -10 -24 -28 -39 -71 -59
-122 -56 -341 -26 -429 60 -51 49 -75 48 -87 -5 -30 -124 69 -199 299 -227
106 -13 184 -6 293 27 74 22 91 32 141 82 52 50 58 62 69 118 14 76 -1 179
-33 216 -12 13 -46 36 -76 52 -53 26 -62 27 -266 34 -211 7 -212 7 -248 35
-30 23 -36 33 -36 65 0 58 17 66 86 39 87 -34 242 -33 338 2 96 35 156 90 186
172 21 54 24 86 28 230 6 234 14 218 -111 217 -73 -1 -115 3 -147 15 -45 17
-235 30 -275 20z m242 -169 c60 -13 66 -31 61 -160 -5 -110 -7 -118 -33 -145
-35 -37 -84 -60 -126 -60 -50 0 -136 48 -149 83 -14 42 -12 197 3 227 6 14 32
35 57 48 46 23 101 25 187 7z"/>
</g>
</svg>
